<svg width="98" height="98" viewBox="0 0 98 98" fill="none" xmlns="http://www.w3.org/2000/svg">
<path fill-rule="evenodd" clip-rule="evenodd" d="M48.5518 0C50.3833 0.0115 51.7663 0.147502 53.5243 0.663502C57.7463 1.9035 61.1828 4.7635 63.2138 8.6585C63.9798 10.129 64.7808 12.1715 65.4533 13.7385L73.6158 32.6795C74.6043 35.0135 75.5768 37.132 76.2883 39.5885C78.0988 45.986 78.0433 52.7675 76.1278 59.134C73.7828 66.888 68.7963 73.5765 62.0343 78.0375C59.9868 79.371 58.0338 80.3445 55.8743 81.458L49.1983 84.8975L30.6153 94.5265C27.4498 96.1825 25.0593 97.3835 21.3738 97.493C16.9963 97.624 12.8938 95.9425 9.71979 92.9665C6.58729 90.057 4.73479 86.0255 4.56779 81.7535C4.49829 79.7545 4.79878 77.76 5.45428 75.87C5.85278 74.7105 6.40029 73.494 6.88629 72.358L9.42229 66.487L31.7838 14.405C32.4953 12.743 33.3748 10.5505 34.1653 8.9615C34.8778 7.52 35.7978 6.1905 36.8958 5.0155C40.0498 1.666 44.0103 0.133 48.5518 0ZM52.7138 12.897C51.7128 11.678 49.8483 10.9085 48.2748 11.135C44.9193 11.449 44.1898 13.8015 43.0483 16.4315L17.9303 74.928C17.2963 76.4055 16.6278 77.875 16.0348 79.3675C15.7488 80.118 15.6548 81.019 15.7578 81.8125C16.1113 84.5425 18.6808 86.633 21.4438 86.284C23.0673 86.0785 23.9083 85.3845 25.3133 84.691C26.9043 83.907 28.4548 83.051 30.0343 82.2655L46.4908 73.7415L51.7198 71.045C54.0658 69.8255 55.8068 68.95 57.8678 67.259C64.3213 61.966 67.4648 53.674 66.1848 45.4335C65.6148 41.763 64.1273 38.9035 62.6913 35.523L55.2868 18.331C54.8863 17.364 54.4738 16.4025 54.0498 15.4455C53.6818 14.593 53.3083 13.621 52.7138 12.897Z" fill="#FAFAFA"/>
<path d="M80.9649 49.8716C82.4604 53.5056 84.1364 57.1331 85.6264 60.7726C86.3959 62.6506 87.5234 64.8866 88.1889 66.7581C88.9764 68.5236 89.7454 70.2976 90.4959 72.0791C90.9874 73.2211 91.6749 74.6691 92.0594 75.8096C93.2664 79.3496 93.2344 83.1946 91.9689 86.7146C90.3724 90.9016 87.1804 94.2841 83.0924 96.1201C79.3049 97.8431 74.7124 97.9156 70.8409 96.4386C69.6714 95.9926 68.2429 95.2176 67.1089 94.6246L62.9744 92.4856C61.8179 91.8781 60.6574 91.2776 59.4934 90.6851C58.8804 90.3716 57.9559 89.9311 57.4004 89.5786C57.2379 89.5431 56.3144 89.0366 56.0969 88.9281C54.8739 88.3211 53.6254 87.5951 52.3949 87.0176C52.7134 86.8736 53.0149 86.7181 53.3239 86.5566C56.0194 85.1536 58.7284 83.7751 61.4114 82.3491C62.0169 82.0271 62.5984 81.6426 63.1939 81.2996C63.2609 81.2406 64.1299 80.7131 64.2599 80.6321C67.6799 82.2691 70.9879 84.1791 74.4254 85.8376C77.9184 87.6016 82.2689 84.4671 81.7699 80.6516C81.5479 78.9501 80.1639 76.3601 79.4959 74.6776C79.3339 74.3476 79.1789 73.9721 79.0379 73.6311C78.1699 71.5346 77.1809 69.4556 76.3614 67.3421C76.8769 66.1641 77.5059 65.0661 78.0234 63.8211C79.4954 60.3031 80.4324 56.5836 80.8019 52.7876C80.8974 51.8516 80.9939 50.8121 80.9649 49.8716Z" fill="#FAFAFA"/>
</svg>
