<svg width="256" height="256" viewBox="0 0 256 256" fill="none" xmlns="http://www.w3.org/2000/svg">
<path fill-rule="evenodd" clip-rule="evenodd" d="M127.779 58.0557C130.408 58.0715 132.393 58.2671 134.917 59.008C140.977 60.7878 145.91 64.8934 148.826 70.4847C149.926 72.5955 151.075 75.5276 152.04 77.7765L163.758 104.966C165.177 108.317 166.573 111.358 167.594 114.884C170.193 124.068 170.113 133.802 167.364 142.941C163.997 154.072 156.839 163.674 147.133 170.077C144.194 171.991 141.39 173.389 138.29 174.988L128.707 179.925L102.031 193.747C97.4867 196.124 94.0555 197.848 88.7647 198.006C82.4815 198.193 76.592 195.78 72.0355 191.508C67.5391 187.331 64.8801 181.544 64.64 175.411C64.5403 172.542 64.9718 169.679 65.9126 166.966C66.4847 165.302 67.2709 163.555 67.9685 161.925L71.6085 153.497L103.709 78.7339C104.73 76.3475 105.992 73.2007 107.127 70.9193C108.15 68.8501 109.471 66.9419 111.046 65.2553C115.574 60.4471 121.259 58.2461 127.779 58.0557ZM133.753 76.5691C132.317 74.8193 129.64 73.7143 127.381 74.0397C122.565 74.4899 121.517 77.867 119.878 81.6427L83.8221 165.613C82.9117 167.735 81.9519 169.844 81.1013 171.986C80.6907 173.064 80.5554 174.357 80.7032 175.497C81.211 179.415 84.899 182.416 88.8654 181.915C91.1961 181.62 92.403 180.624 94.42 179.629C96.7043 178.503 98.9298 177.274 101.197 176.147L124.82 163.911L132.326 160.039C135.694 158.289 138.193 157.033 141.152 154.605C150.416 147.007 154.928 135.104 153.091 123.274C152.273 118.005 150.137 113.901 148.076 109.049L137.447 84.369C136.872 82.9814 136.28 81.6007 135.671 80.2274C135.143 79.0036 134.607 77.608 133.753 76.5691Z" fill="white"/>
<path d="M174.307 129.645C176.454 134.862 178.86 140.069 180.999 145.294C182.103 147.989 183.722 151.199 184.677 153.886C185.808 156.42 186.912 158.966 187.989 161.524C188.694 163.163 189.681 165.242 190.234 166.879C191.966 171.961 191.92 177.48 190.104 182.533C187.812 188.543 183.229 193.399 177.361 196.035C171.924 198.508 165.332 198.612 159.774 196.492C158.095 195.851 156.045 194.739 154.417 193.888L148.482 190.817C146.822 189.945 145.156 189.083 143.485 188.232C142.605 187.783 141.278 187.15 140.48 186.645C140.247 186.593 138.922 185.866 138.609 185.711C136.854 184.839 135.062 183.797 133.295 182.968C133.752 182.761 134.185 182.538 134.629 182.306C138.498 180.292 142.387 178.313 146.238 176.266C147.107 175.804 147.943 175.252 148.797 174.76C148.893 174.675 150.141 173.918 150.328 173.802C155.237 176.152 159.985 178.893 164.92 181.274C169.934 183.806 176.179 179.306 175.463 173.83C175.144 171.387 173.157 167.669 172.199 165.254C171.966 164.78 171.744 164.242 171.541 163.752C170.295 160.742 168.875 157.758 167.699 154.724C168.439 153.033 169.342 151.457 170.085 149.67C172.198 144.62 173.543 139.28 174.073 133.831C174.21 132.487 174.349 130.995 174.307 129.645Z" fill="white"/>
</svg>
